<svg width="26" height="25" viewBox="0 0 26 25" fill="none" xmlns="http://www.w3.org/2000/svg">
  <path d="M24.9539 0.0583732C24.7593 -0.0194479 24.5259 0.0583736 24.448 0.291837L22.1523 6.01168H21.6854L19.1562 2.15954C19.0784 2.04281 18.9617 1.96499 18.8449 1.96499H7.40524C7.28851 1.96499 7.17178 2.0039 7.09396 2.12063L4.21458 5.97277H3.86439L1.56867 0.252926C1.49085 0.0583735 1.25738 -0.0583584 1.06283 0.0194626C0.868279 0.0972836 0.751548 0.330747 0.829369 0.5253L3.20291 6.4397L4.52587 24.2218C4.52587 24.2996 4.52587 24.3385 4.52587 24.3774V24.6498C4.52587 24.8444 4.72042 25 4.91497 25H21.1017C21.2963 25 21.4908 24.8444 21.4908 24.6498L22.7749 6.47861L25.1484 0.56421C25.2652 0.330747 25.1484 0.136194 24.9539 0.0583732ZM7.5998 2.7432H18.6504L20.7515 6.01168H5.18735L7.5998 2.7432ZM21.7243 6.78989L13.0084 15.8171L4.25349 6.78989H21.7243V6.78989ZM4.05894 7.72374L12.4247 16.4008L5.22626 23.4047L4.05894 7.72374ZM5.49863 24.2218L12.9694 16.9455L20.2068 24.2218H5.49863V24.2218ZM20.7905 23.7549L13.5531 16.3619L21.9578 7.64592L20.7905 23.7549Z" fill="#A4ACAD" />
</svg>