<svg width="15" height="16" viewBox="0 0 15 16" fill="none" xmlns="http://www.w3.org/2000/svg">
<g id="&#208;&#167;&#208;&#176;&#209;&#129;&#209;&#139;" clip-path="url(#clip0_7_41)">
<g id="Group">
<g id="Group_2">
<g id="Group_3">
<path id="Vector" d="M7.5 2.94565C7.67935 2.94565 7.82609 2.79891 7.82609 2.61956V2.45652C7.82609 2.27717 7.67935 2.13043 7.5 2.13043C7.32065 2.13043 7.17391 2.27717 7.17391 2.45652V2.61956C7.17391 2.79891 7.32065 2.94565 7.5 2.94565Z" fill="#FF9846"/>
<path id="Vector_2" d="M7.5 13.0544C7.32065 13.0544 7.17391 13.2011 7.17391 13.3804V13.5435C7.17391 13.7228 7.32065 13.8696 7.5 13.8696C7.67935 13.8696 7.82609 13.7228 7.82609 13.5435V13.3804C7.82609 13.2011 7.67935 13.0544 7.5 13.0544Z" fill="#FF9846"/>
<path id="Vector_3" d="M2.11957 7.67392H1.95652C1.77718 7.67392 1.63044 7.82066 1.63044 8.00001C1.63044 8.17935 1.77718 8.32609 1.95652 8.32609H2.11957C2.29891 8.32609 2.44565 8.17935 2.44565 8.00001C2.44565 7.82066 2.29891 7.67392 2.11957 7.67392Z" fill="#FF9846"/>
<path id="Vector_4" d="M13.0435 7.67392H12.8804C12.7011 7.67392 12.5543 7.82066 12.5543 8.00001C12.5543 8.17935 12.7011 8.32609 12.8804 8.32609H13.0435C13.2228 8.32609 13.3696 8.17935 13.3696 8.00001C13.3696 7.82066 13.2228 7.67392 13.0435 7.67392Z" fill="#FF9846"/>
<path id="Vector_5" d="M3.81522 3.85869C3.68478 3.72826 3.48913 3.72826 3.35869 3.85869C3.22826 3.98913 3.22826 4.18478 3.35869 4.31521L3.47282 4.42934C3.53804 4.49456 3.61956 4.52717 3.70109 4.52717C3.78261 4.52717 3.86413 4.49456 3.92935 4.42934C4.05978 4.29891 4.05978 4.10326 3.92935 3.97282L3.81522 3.85869Z" fill="#FF9846"/>
<path id="Vector_6" d="M3.47282 11.5707L3.35869 11.6848C3.22826 11.8152 3.22826 12.0109 3.35869 12.1413C3.42391 12.2065 3.50543 12.2391 3.58696 12.2391C3.66848 12.2391 3.75 12.2065 3.81522 12.1413L3.92935 12.0272C4.05978 11.8968 4.05978 11.7011 3.92935 11.5707C3.79891 11.4402 3.60326 11.4402 3.47282 11.5707Z" fill="#FF9846"/>
<path id="Vector_7" d="M11.1848 3.85869L11.0707 3.97282C10.9402 4.10326 10.9402 4.29891 11.0707 4.42934C11.1359 4.49456 11.2174 4.52717 11.2989 4.52717C11.3804 4.52717 11.462 4.49456 11.5272 4.42934L11.6413 4.31521C11.7717 4.18478 11.7717 3.98913 11.6413 3.85869C11.5109 3.72826 11.3152 3.72826 11.1848 3.85869Z" fill="#FF9846"/>
<path id="Vector_8" d="M7.82609 7.86956V4.90217C7.82609 4.72282 7.67935 4.57608 7.5 4.57608C7.32065 4.57608 7.17391 4.72282 7.17391 4.90217V7.99999C7.17391 8.08152 7.20652 8.16304 7.27174 8.22826L10.8424 11.7989C10.9076 11.8641 10.9891 11.8967 11.0707 11.8967C11.1522 11.8967 11.2337 11.8641 11.2989 11.7989C11.4293 11.6685 11.4293 11.4728 11.2989 11.3424L7.82609 7.86956Z" fill="#FF9846"/>
<path id="Vector_9" d="M7.5 0.5C3.3587 0.5 0 3.8587 0 8C0 12.1413 3.3587 15.5 7.5 15.5C11.6413 15.5 15 12.1413 15 8C15 3.8587 11.6413 0.5 7.5 0.5ZM7.5 14.8478C3.71739 14.8478 0.652174 11.7826 0.652174 8C0.652174 4.21739 3.71739 1.15217 7.5 1.15217C11.2826 1.15217 14.3478 4.21739 14.3478 8C14.3478 11.7826 11.2826 14.8478 7.5 14.8478Z" fill="#FF9846"/>
</g>
</g>
</g>
</g>
<defs>
<clipPath id="clip0_7_41">
<rect width="15" height="15" fill="white" transform="translate(0 0.5)"/>
</clipPath>
</defs>
</svg>
